<?xml version="1.0" encoding="UTF-8" standalone="no"?>
<svg width="200" height="200" viewBox="0 0 200 200" xmlns="http://www.w3.org/2000/svg">
  <style>
    .logo-text { font-family: 'Arial', sans-serif; font-weight: bold; }
    .primary { fill: #f65228; }
    .secondary { fill: #2d3748; }
  </style>
  
  <!-- Main circular background -->
  <circle cx="100" cy="100" r="90" fill="white" stroke="#f65228" stroke-width="4"/>
  
  <!-- Chat bubble icon -->
  <path class="primary" d="M140,80 C140,57.90861 122.09139,40 100,40 C77.90861,40 60,57.90861 60,80 C60,95.3276 69.10,108.5276 82.5,114.8276 L80,140 L105,120 C136.7,120 140,95.3276 140,80 Z" />
  
  <!-- Sound wave lines -->
  <path class="secondary" d="M160,80 C160,83.3137 157.3137,86 154,86 C150.6863,86 148,83.3137 148,80 C148,76.6863 150.6863,74 154,74 C157.3137,74 160,76.6863 160,80 Z" />
  <path class="secondary" d="M170,80 C170,88.2843 163.2843,95 155,95 C153.4494,95 151.9532,94.7433 150.5526,94.2679 C156.9768,90.8365 161.5,85.8 161.5,80 C161.5,74.2 156.9768,69.1635 150.5526,65.7321 C151.9532,65.2567 153.4494,65 155,65 C163.2843,65 170,71.7157 170,80 Z" />
  <path class="secondary" d="M180,80 C180,93.2548 169.2548,104 156,104 C153.4289,104 150.9453,103.5622 148.6289,102.7506 C157.6,98.5 164,89.8 164,80 C164,70.2 157.6,61.5 148.6289,57.2494 C150.9453,56.4378 153.4289,56 156,56 C169.2548,56 180,66.7452 180,80 Z" />
  
  <!-- Portal dot in center -->
  <circle cx="100" cy="80" r="10" fill="white"/>
</svg>
