<?xml version="1.0" encoding="UTF-8"?>
<svg width="200px" height="60px" viewBox="0 0 200 60" version="1.1" xmlns="http://www.w3.org/2000/svg" xmlns:xlink="http://www.w3.org/1999/xlink">
    <title>ChatSites Logo</title>
    <g id="Logo" stroke="none" stroke-width="1" fill="none" fill-rule="evenodd">
        <path d="M40,10 C51.045695,10 60,18.954305 60,30 C60,41.045695 51.045695,50 40,50 C28.954305,50 20,41.045695 20,30 C20,18.954305 28.954305,10 40,10 Z" id="Circle" fill="#F65228"></path>
        <path d="M40,15 C48.2842712,15 55,21.7157288 55,30 C55,38.2842712 48.2842712,45 40,45 C31.7157288,45 25,38.2842712 25,30 C25,21.7157288 31.7157288,15 40,15 Z" id="Inner-Circle" fill="#FFFFFF"></path>
        <path d="M40,20 C45.5228475,20 50,24.4771525 50,30 C50,35.5228475 45.5228475,40 40,40 C34.4771525,40 30,35.5228475 30,30 C30,24.4771525 34.4771525,20 40,20 Z" id="Core" fill="#F65228"></path>
        <path d="M75,20 L75,40 L80,40 L80,32.5 L87.5,32.5 C91.6421356,32.5 95,29.1421356 95,25 C95,20.8578644 91.6421356,17.5 87.5,17.5 L77.5,17.5 C76.1192881,17.5 75,18.6192881 75,20 Z M80,22.5 L87.5,22.5 C88.8807119,22.5 90,23.6192881 90,25 C90,26.3807119 88.8807119,27.5 87.5,27.5 L80,27.5 L80,22.5 Z" id="P" fill="#333333" fill-rule="nonzero"></path>
        <path d="M100,20 L100,40 L105,40 L105,32.5 L107.5,32.5 L112.5,40 L118.5,40 L112.5,31.5 C115.2,30.6 117,28.1 117,25 C117,20.9 113.6,17.5 109.5,17.5 L102.5,17.5 C101.1,17.5 100,18.6 100,20 Z M105,22.5 L109.5,22.5 C110.9,22.5 112,23.6 112,25 C112,26.4 110.9,27.5 109.5,27.5 L105,27.5 L105,22.5 Z" id="R" fill="#333333" fill-rule="nonzero"></path>
        <path d="M125,17.5 L125,40 L145,40 L145,35 L130,35 L130,30 L140,30 L140,25 L130,25 L130,22.5 L145,22.5 L145,17.5 L125,17.5 Z" id="E" fill="#333333" fill-rule="nonzero"></path>
        <path d="M150,17.5 L150,40 L155,40 L155,17.5 L150,17.5 Z" id="I" fill="#333333" fill-rule="nonzero"></path>
        <path d="M160,17.5 L160,40 L165,40 L165,25 L175,40 L180,40 L180,17.5 L175,17.5 L175,32.5 L165,17.5 L160,17.5 Z" id="N" fill="#333333" fill-rule="nonzero"></path>
    </g>
</svg>
